<svg width="26" height="26" viewBox="0 0 26 26" fill="none" xmlns="http://www.w3.org/2000/svg">
<path fill-rule="evenodd" clip-rule="evenodd" d="M1.97262 14H1V13.4743C1 10.1385 2.21577 6.9968 4.44359 4.64083C6.67141 2.28486 9.64074 1 12.7952 1H12.8007L14 1.00116L10.7043 4.44787L10.0044 3.70838L11.5433 2.11039C9.11391 2.41081 6.8828 3.54084 5.14458 5.37917C3.09858 7.54333 1.97262 10.4193 1.97262 13.4743V14Z" fill="#7C6C8A" stroke="#7C6C8A" stroke-width="0.5"/>
<path fill-rule="evenodd" clip-rule="evenodd" d="M13.1994 25H12L15.2812 21.5641L15.9601 22.279L14.4568 23.8855C19.8295 23.1995 24.005 18.3995 24.005 12.5255V12H25V12.5255C25 19.3835 19.7114 25 13.1994 25Z" fill="#7C6C8A"/>
<path d="M13.1994 25H12L15.2812 21.5641L15.9601 22.279L14.4568 23.8855C19.8295 23.1995 24.005 18.3995 24.005 12.5255V12H25V12.5255C25 19.3835 19.7114 25 13.1994 25" stroke="#7C6C8A" stroke-width="0.5"/>
<path fill-rule="evenodd" clip-rule="evenodd" d="M8.4547 6.96712C8.09813 6.96712 7.75596 7.06013 7.5965 7.2506C7.23107 7.62267 6.52015 8.34688 6.52015 9.79086C6.52015 10.752 6.99964 11.9557 7.8224 13.0863L7.92871 13.2126C9.54987 15.5746 11.5719 17.3353 13.5784 18.2078C15.0977 18.8102 16.1729 19.1236 16.8728 19.1236C17.1142 19.1236 17.288 19.1114 17.4608 19.0727C18.2382 18.8878 19.2281 18.2876 19.443 17.7106C19.6423 17.1237 19.6766 16.652 19.6633 16.4427C19.6002 16.4117 19.5016 16.4084 19.4407 16.3674L19.2259 16.2489C17.9923 15.6266 17.081 15.1936 16.8994 15.1217C16.7665 15.0641 16.782 15.0165 16.6126 15.2069L16.462 15.4516C16.1608 15.858 15.8784 16.239 15.6525 16.4859C15.3003 16.8613 14.7389 16.9455 14.2506 16.7716L14.131 16.7229C13.6681 16.5158 12.5884 16.0751 11.3083 14.9544C10.315 14.0641 9.5997 12.9789 9.27525 12.423C8.87549 11.7741 9.28964 11.3102 9.45353 11.0986C9.54987 10.9669 9.66725 10.8639 9.77688 10.7376C9.83778 10.6579 9.91308 10.6026 9.98838 10.5151C10.1633 10.3102 10.2287 10.2349 10.2885 10.0821C10.2995 10.06 10.315 10.0134 10.2331 9.86727C10.1943 9.74214 9.85661 8.95481 9.54987 8.22064L9.15344 7.25835C9.07371 7.03024 9.01502 6.99369 9.0128 6.99148C8.99287 6.98816 8.87549 6.98262 8.85002 6.9804C8.66288 6.97265 8.5754 6.96712 8.4547 6.96712ZM16.8728 20.1103C16.0235 20.1103 14.8862 19.8113 13.1798 19.1237C11.0038 18.2201 8.85225 16.3254 7.09266 13.7907L7.05059 13.6965C6.45704 12.907 5.51358 11.3855 5.51358 9.79091C5.51358 7.93499 6.4504 6.9882 6.84351 6.57848C7.24991 6.16876 7.81355 5.95947 8.45471 5.95947C8.59423 5.95947 8.69722 5.96501 8.8146 5.97055C9.43914 5.99934 9.77689 6.13554 10.0759 6.86972L10.4734 7.84862C10.7724 8.55954 11.0991 9.31586 11.1334 9.4421C11.212 9.57941 11.4313 10.0379 11.1821 10.5229C11.0647 10.7964 10.923 10.9359 10.7658 11.1197C10.665 11.2648 10.5797 11.3301 10.4945 11.4209C10.418 11.5283 10.3173 11.6114 10.2287 11.7387C10.1777 11.7864 10.1135 11.8617 10.1013 11.8916C10.4435 12.4342 11.088 13.4031 11.9694 14.176C13.1311 15.2214 14.0701 15.5934 14.5219 15.7961L14.6271 15.8492C14.7146 15.8847 14.8176 15.9345 14.9205 15.8282C15.1165 15.589 15.3801 15.2347 15.6525 14.857L15.8097 14.6168C16.1054 14.1816 16.5018 14.1218 16.7731 14.1218C16.9204 14.1218 17.0732 14.1506 17.2349 14.1793C17.5427 14.3 18.8871 14.9822 19.6711 15.3587L19.8715 15.4683C20.1627 15.5724 20.3986 15.7031 20.5481 15.9578C20.774 16.3686 20.6256 17.3154 20.3864 18.0296C20.0132 19.0561 18.7453 19.8025 17.6756 20.0273C17.4553 20.0605 17.205 20.1103 16.8728 20.1103Z" fill="#7C6C8A"/>
<path d="M7.5965 7.2506L7.77486 7.42578L7.78182 7.41869L7.78819 7.41108L7.5965 7.2506ZM7.8224 13.0863L7.62026 13.2334L7.62547 13.2406L7.63117 13.2474L7.8224 13.0863ZM7.92871 13.2126L8.13483 13.0711L8.12786 13.061L8.11993 13.0515L7.92871 13.2126ZM13.5784 18.2078L13.4787 18.4372L13.4863 18.4402L13.5784 18.2078ZM17.4608 19.0727L17.5155 19.3166L17.5187 19.3159L17.4608 19.0727ZM19.443 17.7106L19.6773 17.7979L19.6797 17.791L19.443 17.7106ZM19.6633 16.4427L19.9128 16.4269L19.9036 16.2822L19.7735 16.2183L19.6633 16.4427ZM19.4407 16.3674L19.5803 16.16L19.5711 16.1538L19.5615 16.1485L19.4407 16.3674ZM19.2259 16.2489L19.3467 16.0299L19.3385 16.0257L19.2259 16.2489ZM16.8994 15.1217L16.7999 15.3512L16.8073 15.3541L16.8994 15.1217ZM16.6126 15.2069L16.4258 15.0408L16.4112 15.0572L16.3996 15.0759L16.6126 15.2069ZM16.462 15.4516L16.6628 15.6005L16.6692 15.5919L16.6749 15.5827L16.462 15.4516ZM15.6525 16.4859L15.8348 16.657L15.8369 16.6547L15.6525 16.4859ZM14.2506 16.7716L14.1562 17.0034L14.1667 17.0071L14.2506 16.7716ZM14.131 16.7229L14.0288 16.9512L14.0367 16.9544L14.131 16.7229ZM11.3083 14.9544L11.1415 15.1406L11.1437 15.1426L11.3083 14.9544ZM9.27525 12.423L9.49122 12.297L9.4881 12.2919L9.27525 12.423ZM9.45353 11.0986L9.65122 11.2518L9.65535 11.2462L9.45353 11.0986ZM9.77688 10.7376L9.96563 10.9016L9.97078 10.8956L9.97554 10.8894L9.77688 10.7376ZM9.98838 10.5151L10.1779 10.6782L10.1785 10.6774L9.98838 10.5151ZM10.2885 10.0821L10.0649 9.97029L10.0598 9.98044L10.0557 9.991L10.2885 10.0821ZM10.2331 9.86727L9.9943 9.94124L10.0021 9.96648L10.015 9.98952L10.2331 9.86727ZM9.54987 8.22064L9.31871 8.31587L9.31919 8.31701L9.54987 8.22064ZM9.15344 7.25835L8.91708 7.34096L8.92228 7.35358L9.15344 7.25835ZM9.0128 6.99148L9.18958 6.8147L9.13293 6.75805L9.0539 6.74488L9.0128 6.99148ZM8.85002 6.9804L8.8717 6.73109L8.86037 6.73062L8.85002 6.9804ZM13.1798 19.1237L13.0839 19.3546L13.0863 19.3556L13.1798 19.1237ZM7.09266 13.7907L6.86443 13.8927L6.87397 13.914L6.8873 13.9332L7.09266 13.7907ZM7.05059 13.6965L7.27882 13.5945L7.26733 13.5688L7.25042 13.5463L7.05059 13.6965ZM6.84351 6.57848L6.66599 6.4024L6.66311 6.4054L6.84351 6.57848ZM8.8146 5.97055L8.80282 6.22027L8.80308 6.22028L8.8146 5.97055ZM10.0759 6.86972L10.3075 6.77565L10.3074 6.77543L10.0759 6.86972ZM10.4734 7.84862L10.2418 7.94269L10.243 7.94553L10.4734 7.84862ZM11.1334 9.4421L10.8922 9.5077L10.9005 9.53856L10.9164 9.56632L11.1334 9.4421ZM11.1821 10.5229L10.9597 10.4086L10.9558 10.4163L10.9524 10.4243L11.1821 10.5229ZM10.7658 11.1197L10.5758 10.9572L10.5676 10.9668L10.5604 10.9771L10.7658 11.1197ZM10.4945 11.4209L10.3122 11.2498L10.3006 11.2622L10.2907 11.276L10.4945 11.4209ZM10.2287 11.7387L10.3994 11.9214L10.4188 11.9033L10.4339 11.8815L10.2287 11.7387ZM10.1013 11.8916L9.86982 11.7972L9.82134 11.9162L9.88988 12.0249L10.1013 11.8916ZM11.9694 14.176L12.1367 13.9902L12.1343 13.9881L11.9694 14.176ZM14.5219 15.7961L14.6348 15.5727L14.6242 15.568L14.5219 15.7961ZM14.6271 15.8492L14.5143 16.0724L14.5236 16.0771L14.5332 16.0809L14.6271 15.8492ZM14.9205 15.8282L15.1001 16.0021L15.1073 15.9947L15.1139 15.9867L14.9205 15.8282ZM15.6525 14.857L15.8555 15.0035L15.8617 14.9939L15.6525 14.857ZM15.8097 14.6168L15.6029 14.4762L15.6005 14.4799L15.8097 14.6168ZM17.2349 14.1793L17.3262 13.9466L17.3031 13.9376L17.2787 13.9332L17.2349 14.1793ZM19.6711 15.3587L19.7912 15.139L19.7793 15.1333L19.6711 15.3587ZM19.8715 15.4683L19.7515 15.6876L19.7688 15.6971L19.7874 15.7037L19.8715 15.4683ZM20.5481 15.9578L20.7673 15.8373L20.7637 15.8312L20.5481 15.9578ZM20.3864 18.0296L20.6215 18.1151L20.6235 18.109L20.3864 18.0296ZM17.6756 20.0273L17.7129 20.2745L17.72 20.2734L17.727 20.2719L17.6756 20.0273ZM8.4547 6.71712C8.25626 6.71712 8.05564 6.74282 7.87686 6.79889C7.70115 6.854 7.52635 6.94494 7.40481 7.09011L7.78819 7.41108C7.82611 7.36579 7.90212 7.31499 8.0265 7.27597C8.14781 7.23792 8.29657 7.21712 8.4547 7.21712V6.71712ZM7.41814 7.07542C7.0391 7.46135 6.27015 8.24643 6.27015 9.79086H6.77015C6.77015 8.44732 7.42305 7.78398 7.77486 7.42578L7.41814 7.07542ZM6.27015 9.79086C6.27015 10.8247 6.78052 12.0795 7.62026 13.2334L8.02454 12.9392C7.21876 11.832 6.77015 10.6794 6.77015 9.79086H6.27015ZM7.63117 13.2474L7.73748 13.3736L8.11993 13.0515L8.01363 12.9253L7.63117 13.2474ZM7.72258 13.3541C9.3636 15.745 11.4195 17.5416 13.4787 18.4371L13.6781 17.9786C11.7243 17.1289 9.73614 15.4042 8.13483 13.0711L7.72258 13.3541ZM13.4863 18.4402C15.0019 19.0412 16.1189 19.3736 16.8728 19.3736V18.8736C16.227 18.8736 15.1935 18.5793 13.6706 17.9754L13.4863 18.4402ZM16.8728 19.3736C17.1222 19.3736 17.3169 19.3612 17.5155 19.3166L17.4061 18.8288C17.2592 18.8617 17.1062 18.8736 16.8728 18.8736V19.3736ZM17.5187 19.3159C17.9388 19.2159 18.4074 19.0069 18.8006 18.7473C19.1845 18.4938 19.5414 18.1626 19.6772 17.7979L19.2087 17.6234C19.1297 17.8356 18.8841 18.093 18.5251 18.33C18.1752 18.561 17.7601 18.7445 17.4029 18.8295L17.5187 19.3159ZM19.6797 17.791C19.888 17.1777 19.9284 16.6732 19.9128 16.4269L19.4138 16.4586C19.4248 16.6309 19.3966 17.0698 19.2062 17.6303L19.6797 17.791ZM19.7735 16.2183C19.7377 16.2008 19.7029 16.1899 19.6776 16.1828C19.6534 16.1761 19.6255 16.1696 19.6106 16.166C19.5919 16.1614 19.5816 16.1585 19.5747 16.1561C19.5679 16.1537 19.5717 16.1542 19.5803 16.16L19.3012 16.5749C19.3735 16.6235 19.4554 16.6427 19.4917 16.6516C19.517 16.6578 19.5294 16.6606 19.5434 16.6645C19.5562 16.668 19.5573 16.6692 19.5531 16.6671L19.7735 16.2183ZM19.5615 16.1485L19.3467 16.03L19.1052 16.4679L19.32 16.5863L19.5615 16.1485ZM19.3385 16.0257C18.1086 15.4052 17.1859 14.9663 16.9915 14.8892L16.8073 15.3541C16.9761 15.421 17.8761 15.848 19.1133 16.4721L19.3385 16.0257ZM16.9988 14.8923C16.9679 14.8789 16.9741 14.8795 16.9309 14.8587C16.9039 14.8457 16.8302 14.8105 16.7353 14.8236C16.6444 14.8363 16.5805 14.8863 16.5454 14.9171C16.5079 14.95 16.4677 14.9936 16.4258 15.0408L16.7994 15.3731C16.8197 15.3502 16.8358 15.3326 16.8489 15.3188C16.8623 15.3048 16.8704 15.2971 16.8749 15.2932C16.877 15.2914 16.8773 15.2912 16.8761 15.2921C16.8749 15.293 16.8715 15.2954 16.866 15.2986C16.8604 15.3017 16.8522 15.3058 16.8416 15.3097C16.8308 15.3136 16.8182 15.3169 16.804 15.3189C16.7898 15.3209 16.7759 15.3212 16.7629 15.3202C16.75 15.3192 16.7393 15.317 16.7312 15.3149C16.7234 15.3128 16.7178 15.3107 16.7152 15.3097C16.7127 15.3087 16.7119 15.3082 16.7137 15.3091C16.7156 15.31 16.7184 15.3114 16.7236 15.3141C16.7278 15.3162 16.7354 15.3202 16.7422 15.3237C16.7573 15.3314 16.7767 15.341 16.8 15.351L16.9988 14.8923ZM16.3996 15.0759L16.249 15.3206L16.6749 15.5827L16.8255 15.3379L16.3996 15.0759ZM16.2611 15.3028C15.9566 15.7136 15.6831 16.082 15.468 16.3172L15.8369 16.6547C16.0736 16.3959 16.3649 16.0025 16.6628 15.6005L16.2611 15.3028ZM15.4702 16.3149C15.1995 16.6034 14.7492 16.6837 14.3344 16.5361L14.1667 17.0071C14.7287 17.2072 15.4012 17.1192 15.8348 16.657L15.4702 16.3149ZM14.3449 16.5401L14.2253 16.4914L14.0367 16.9544L14.1563 17.0031L14.3449 16.5401ZM14.2331 16.4947C13.773 16.2889 12.723 15.8606 11.473 14.7663L11.1437 15.1426C12.4539 16.2895 13.5632 16.7427 14.0289 16.9511L14.2331 16.4947ZM11.4752 14.7683C10.509 13.9022 9.80897 12.8415 9.49116 12.297L9.05933 12.5491C9.39043 13.1163 10.1211 14.226 11.1415 15.1406L11.4752 14.7683ZM9.4881 12.2919C9.32869 12.0332 9.33844 11.8321 9.39034 11.6754C9.44802 11.5013 9.56024 11.3691 9.65114 11.2518L9.25591 10.9455C9.18293 11.0397 9.00613 11.2452 8.9157 11.5182C8.81949 11.8086 8.82204 12.164 9.06239 12.5542L9.4881 12.2919ZM9.65535 11.2462C9.69373 11.1937 9.73814 11.1444 9.79148 11.0882C9.84196 11.0351 9.90595 10.9703 9.96563 10.9016L9.58812 10.5737C9.53817 10.6312 9.48866 10.681 9.42896 10.7439C9.37212 10.8037 9.30966 10.8718 9.25171 10.9511L9.65535 11.2462ZM9.97554 10.8894C9.99353 10.8659 10.0154 10.8435 10.0512 10.8088C10.0845 10.7765 10.1313 10.7323 10.1779 10.6782L9.7989 10.352C9.77018 10.3853 9.74163 10.4125 9.70325 10.4497C9.66737 10.4845 9.62113 10.5297 9.57821 10.5859L9.97554 10.8894ZM10.1785 10.6774C10.3487 10.4781 10.4436 10.3717 10.5213 10.1732L10.0557 9.991C10.0137 10.0981 9.97795 10.1423 9.79828 10.3527L10.1785 10.6774ZM10.5121 10.1939C10.5376 10.1429 10.5566 10.0737 10.5428 9.98349C10.5314 9.90863 10.499 9.83038 10.4512 9.74502L10.015 9.98952C10.0313 10.0185 10.0403 10.0384 10.0451 10.0506C10.05 10.0629 10.0495 10.065 10.0485 10.0589C10.0475 10.0519 10.0462 10.0367 10.0499 10.0161C10.0516 10.0061 10.0543 9.99654 10.0574 9.98782C10.0605 9.97926 10.0635 9.97295 10.0649 9.97029L10.5121 10.1939ZM10.4719 9.7933C10.4479 9.71567 10.3464 9.47103 10.2225 9.17564C10.0942 8.86978 9.93402 8.49161 9.78055 8.12426L9.31919 8.31701C9.47245 8.68384 9.63449 9.06642 9.76144 9.36905C9.89278 9.68215 9.97959 9.89374 9.9943 9.94124L10.4719 9.7933ZM9.78102 8.12541L9.38459 7.16312L8.92228 7.35358L9.31872 8.31587L9.78102 8.12541ZM9.38944 7.17586C9.34501 7.04875 9.30227 6.96271 9.263 6.90294C9.24308 6.87262 9.22348 6.84817 9.20423 6.82826C9.19451 6.8182 9.18537 6.80982 9.177 6.80279C9.17284 6.7993 9.16947 6.79664 9.16755 6.79515C9.16573 6.79372 9.16753 6.79513 9.16821 6.79567C9.16885 6.79617 9.17089 6.79778 9.17347 6.79995C9.17525 6.80144 9.18181 6.80693 9.18958 6.8147L8.83603 7.16825C8.84386 7.17609 8.85052 7.18167 8.85242 7.18326C8.85513 7.18553 8.85732 7.18727 8.85814 7.18791C8.85917 7.18873 8.86145 7.1905 8.86019 7.18952C8.85942 7.18892 8.85761 7.1875 8.85542 7.18566C8.85099 7.18194 8.84743 7.17856 8.84477 7.1758C8.83964 7.1705 8.84011 7.16985 8.84511 7.17747C8.85567 7.19354 8.88213 7.23983 8.91744 7.34084L9.38944 7.17586ZM9.0539 6.74488C9.04147 6.74281 9.02936 6.74168 9.02395 6.74118C9.01648 6.7405 9.00835 6.73987 9.00046 6.7393C8.9846 6.73816 8.96596 6.73701 8.94828 6.73596C8.93934 6.73543 8.93039 6.73491 8.92193 6.73442C8.9134 6.73393 8.90544 6.73347 8.89818 6.73304C8.89089 6.73261 8.8847 6.73223 8.87974 6.73191C8.87727 6.73175 8.8753 6.73161 8.87379 6.7315C8.87218 6.73139 8.87157 6.73133 8.87168 6.73134L8.82836 7.22946C8.84567 7.23097 8.88829 7.23328 8.91869 7.23509C8.93604 7.23612 8.95207 7.23711 8.96462 7.23801C8.97094 7.23847 8.97545 7.23883 8.97831 7.2391C8.98323 7.23955 8.97916 7.23932 8.9717 7.23808L9.0539 6.74488ZM8.86037 6.73062C8.67855 6.72309 8.58225 6.71712 8.4547 6.71712V7.21712C8.56855 7.21712 8.64721 7.22222 8.83968 7.23019L8.86037 6.73062ZM16.8728 19.8603C16.0746 19.8603 14.9754 19.5777 13.2732 18.8918L13.0863 19.3556C14.7971 20.045 15.9723 20.3603 16.8728 20.3603V19.8603ZM13.2757 18.8928C11.1562 18.0127 9.03909 16.1561 7.29803 13.6481L6.8873 13.9332C8.66541 16.4946 10.8514 18.4275 13.0839 19.3546L13.2757 18.8928ZM7.3209 13.6886L7.27882 13.5945L6.82235 13.7986L6.86443 13.8927L7.3209 13.6886ZM7.25042 13.5463C6.66344 12.7655 5.76358 11.2999 5.76358 9.79091H5.26358C5.26358 11.4711 6.25065 13.0485 6.85075 13.8468L7.25042 13.5463ZM5.76358 9.79091C5.76358 8.03524 6.64231 7.14928 7.02391 6.75156L6.66311 6.4054C6.25849 6.82712 5.26358 7.83474 5.26358 9.79091H5.76358ZM7.02101 6.75454C7.37291 6.39976 7.86866 6.20947 8.45471 6.20947V5.70947C7.75844 5.70947 7.12691 5.93777 6.66602 6.40243L7.02101 6.75454ZM8.45471 6.20947C8.58727 6.20947 8.6842 6.21467 8.80282 6.22027L8.82638 5.72082C8.71024 5.71535 8.60119 5.70947 8.45471 5.70947V6.20947ZM8.80308 6.22028C9.10559 6.23423 9.28976 6.27372 9.43144 6.36546C9.57021 6.45532 9.70396 6.61932 9.84433 6.96401L10.3074 6.77543C10.1488 6.38594 9.96418 6.11475 9.7032 5.94576C9.44513 5.77866 9.14815 5.73566 8.82611 5.72081L8.80308 6.22028ZM9.84424 6.96378L10.2418 7.94268L10.705 7.75455L10.3075 6.77565L9.84424 6.96378ZM10.243 7.94553C10.3946 8.30602 10.5474 8.66437 10.6721 8.9614C10.7337 9.10802 10.7865 9.23518 10.8259 9.33311C10.8456 9.38214 10.8615 9.42277 10.8733 9.45429C10.8793 9.47004 10.8838 9.48272 10.8872 9.49254C10.8889 9.49741 10.8901 9.50118 10.891 9.50397C10.8919 9.50688 10.8922 9.508 10.8922 9.5077L11.3746 9.37649C11.3614 9.32767 11.3279 9.24142 11.2898 9.14655C11.2489 9.04495 11.1949 8.91493 11.1332 8.76783C11.0112 8.4774 10.8512 8.10213 10.7039 7.7517L10.243 7.94553ZM10.9164 9.56632C10.985 9.68603 11.148 10.0422 10.9597 10.4086L11.4045 10.6371C11.7146 10.0335 11.439 9.47278 11.3503 9.31787L10.9164 9.56632ZM10.9524 10.4243C10.8535 10.6547 10.7428 10.7619 10.5758 10.9572L10.9557 11.2822C11.1031 11.1099 11.276 10.938 11.4119 10.6215L10.9524 10.4243ZM10.5604 10.9771C10.4732 11.1026 10.4228 11.132 10.3122 11.2498L10.6767 11.5921C10.7366 11.5282 10.8567 11.427 10.9711 11.2624L10.5604 10.9771ZM10.2907 11.276C10.2633 11.3146 10.2307 11.35 10.1816 11.4037C10.1356 11.4541 10.0781 11.5174 10.0235 11.596L10.4339 11.8815C10.4678 11.8328 10.5051 11.7909 10.5506 11.7411C10.5932 11.6945 10.6492 11.6347 10.6982 11.5658L10.2907 11.276ZM10.058 11.5561C10.0242 11.5877 9.98852 11.6259 9.95903 11.661C9.94416 11.6787 9.92895 11.6979 9.9154 11.717C9.90487 11.7318 9.88433 11.7616 9.86982 11.7972L10.3329 11.9859C10.3276 11.9988 10.3228 12.0066 10.3223 12.0074C10.3213 12.0092 10.3213 12.009 10.323 12.0065C10.3265 12.0016 10.3329 11.9934 10.3419 11.9826C10.3603 11.9607 10.3823 11.9374 10.3994 11.9214L10.058 11.5561ZM9.88988 12.0249C10.2346 12.5715 10.8947 13.5661 11.8046 14.364L12.1343 13.9881C11.2812 13.2401 10.6525 12.2968 10.3128 11.7582L9.88988 12.0249ZM11.8022 14.3619C12.9951 15.4353 13.9655 15.8205 14.4196 16.0242L14.6242 15.568C14.1747 15.3663 13.267 15.0074 12.1367 13.9902L11.8022 14.3619ZM14.4091 16.0192L14.5143 16.0724L14.7398 15.6261L14.6346 15.5729L14.4091 16.0192ZM14.5332 16.0809C14.5608 16.0921 14.6516 16.1341 14.7499 16.1412C14.8732 16.1502 14.9971 16.1085 15.1001 16.0021L14.741 15.6542C14.737 15.6583 14.7412 15.6528 14.7545 15.6477C14.768 15.6426 14.78 15.6421 14.7861 15.6425C14.7903 15.6428 14.7882 15.6433 14.7757 15.6391C14.7697 15.6371 14.7626 15.6344 14.7533 15.6307C14.7486 15.6288 14.7438 15.6269 14.7384 15.6246C14.7332 15.6225 14.727 15.62 14.7209 15.6175L14.5332 16.0809ZM15.1139 15.9867C15.3151 15.7411 15.5825 15.3814 15.8552 15.0033L15.4497 14.7108C15.1777 15.0879 14.9179 15.4369 14.7272 15.6697L15.1139 15.9867ZM15.8617 14.9939L16.0189 14.7536L15.6005 14.4799L15.4433 14.7202L15.8617 14.9939ZM16.0165 14.7572C16.2466 14.4187 16.5436 14.3718 16.7731 14.3718V13.8718C16.4601 13.8718 15.9643 13.9445 15.603 14.4763L16.0165 14.7572ZM16.7731 14.3718C16.8935 14.3718 17.022 14.3954 17.1911 14.4255L17.2787 13.9332C17.1245 13.9058 16.9473 13.8718 16.7731 13.8718V14.3718ZM17.1436 14.4121C17.285 14.4675 17.6853 14.6617 18.164 14.8974C18.6349 15.1293 19.1694 15.3951 19.5629 15.584L19.7793 15.1333C19.3888 14.9458 18.859 14.6823 18.3849 14.4488C17.9184 14.2191 17.4926 14.0119 17.3262 13.9466L17.1436 14.4121ZM19.5511 15.578L19.7515 15.6876L19.9915 15.249L19.791 15.1393L19.5511 15.578ZM19.7874 15.7037C20.0591 15.8008 20.2275 15.9054 20.3325 16.0843L20.7637 15.8312C20.5698 15.5008 20.2664 15.344 19.9556 15.2329L19.7874 15.7037ZM20.329 16.0782C20.3623 16.1387 20.3902 16.2366 20.4028 16.3767C20.4151 16.5139 20.4113 16.6763 20.393 16.8544C20.3564 17.2106 20.2641 17.6077 20.1494 17.9502L20.6235 18.109C20.748 17.7372 20.8494 17.3038 20.8904 16.9054C20.9108 16.7061 20.9167 16.5102 20.9008 16.3321C20.8851 16.1567 20.8469 15.9822 20.7672 15.8373L20.329 16.0782ZM20.1515 17.9442C19.9886 18.3923 19.6218 18.7981 19.1503 19.1233C18.6806 19.4472 18.1271 19.6769 17.6242 19.7826L17.727 20.2719C18.2939 20.1528 18.9091 19.897 19.4342 19.5349C19.9573 19.1741 20.4111 18.6934 20.6214 18.115L20.1515 17.9442ZM17.6384 19.7801C17.4079 19.8148 17.1813 19.8603 16.8728 19.8603V20.3603C17.2287 20.3603 17.5026 20.3062 17.7129 20.2745L17.6384 19.7801Z" fill="#7C6C8A"/>
</svg>
