<svg width="24" height="23" viewBox="0 0 24 23" fill="none" xmlns="http://www.w3.org/2000/svg">
<path fill-rule="evenodd" clip-rule="evenodd" d="M8.6689 19.8411H7.7589C7.7599 18.8381 7.3799 17.9011 6.6969 17.2171C6.0139 16.5341 5.0769 16.1531 4.0739 16.1531V15.2441C5.2999 15.2441 6.4499 15.7281 7.3149 16.6011C8.1859 17.4511 8.6699 18.6161 8.6689 19.8411Z" fill="#7C6C8A"/>
<path d="M8.6689 19.8411H7.7589C7.7599 18.8381 7.3799 17.9011 6.6969 17.2171C6.0139 16.5341 5.0769 16.1531 4.0739 16.1531V15.2441C5.2999 15.2441 6.4499 15.7281 7.3149 16.6011C8.1859 17.4511 8.6699 18.6161 8.6689 19.8411" stroke="#7C6C8A" stroke-width="0.5"/>
<path fill-rule="evenodd" clip-rule="evenodd" d="M4.9932 19.8753C4.9922 19.3483 4.5712 18.9273 4.0452 18.9273V18.0173C5.0762 18.0173 5.8992 18.8403 5.9022 19.8733L4.9932 19.8753Z" fill="#7C6C8A" stroke="#7C6C8A" stroke-width="0.5"/>
<path fill-rule="evenodd" clip-rule="evenodd" d="M10.9375 19.8431C10.9375 16.0631 7.84949 12.9731 4.07449 12.9731V12.1081C8.35549 12.1081 11.8035 15.5561 11.8075 19.8431H10.9375Z" fill="#7C6C8A" stroke="#7C6C8A" stroke-width="0.5"/>
<path fill-rule="evenodd" clip-rule="evenodd" d="M14.1621 19.845C14.1601 14.271 9.6451 9.75303 4.0751 9.75103V8.87903C10.1221 8.87903 15.0241 13.778 15.0261 19.845H14.1621Z" fill="#7C6C8A" stroke="#7C6C8A" stroke-width="0.5"/>
<path fill-rule="evenodd" clip-rule="evenodd" d="M2.1396 21.7757H14.5126C18.6136 21.7757 21.9556 18.4327 21.9556 14.3327V9.40373C21.9556 5.30273 18.6136 1.95973 14.5116 1.95973H9.5836C5.4836 1.95973 2.1396 5.30273 2.1396 9.40373V21.7757ZM14.5126 22.6857L11.4096 22.6837L1.6846 22.6857C1.4526 22.6857 1.2296 22.4627 1.2296 22.2307V9.40373C1.2296 4.79673 4.9766 1.09473 9.5836 1.09473H14.5116C19.1026 1.09473 22.8216 4.79673 22.8216 9.40373V14.3327C22.8216 18.9397 19.1026 22.6857 14.5126 22.6857Z" fill="#7C6C8A"/>
<path d="M2.1396 21.7757H1.8896V22.0257H2.1396V21.7757ZM11.4096 22.6837L11.4098 22.4337H11.4095L11.4096 22.6837ZM1.6846 22.6857V22.9357H1.68465L1.6846 22.6857ZM2.1396 22.0257H14.5126V21.5257H2.1396V22.0257ZM14.5126 22.0257C18.7517 22.0257 22.2056 18.5708 22.2056 14.3327H21.7056C21.7056 18.2947 18.4755 21.5257 14.5126 21.5257V22.0257ZM22.2056 14.3327V9.40373H21.7056V14.3327H22.2056ZM22.2056 9.40373C22.2056 5.16468 18.7517 1.70973 14.5116 1.70973V2.20973C18.4755 2.20973 21.7056 5.44078 21.7056 9.40373H22.2056ZM14.5116 1.70973H9.5836V2.20973H14.5116V1.70973ZM9.5836 1.70973C5.34555 1.70973 1.8896 5.16463 1.8896 9.40373H2.3896C2.3896 5.44082 5.62165 2.20973 9.5836 2.20973V1.70973ZM1.8896 9.40373V21.7757H2.3896V9.40373H1.8896ZM14.5128 22.4357L11.4098 22.4337L11.4094 22.9337L14.5124 22.9357L14.5128 22.4357ZM11.4095 22.4337L1.68455 22.4357L1.68465 22.9357L11.4097 22.9337L11.4095 22.4337ZM1.6846 22.4357C1.64765 22.4357 1.5946 22.4162 1.54688 22.3685C1.49915 22.3207 1.4796 22.2677 1.4796 22.2307H0.979599C0.979599 22.4258 1.07155 22.6002 1.19332 22.722C1.3151 22.8438 1.48954 22.9357 1.6846 22.9357V22.4357ZM1.4796 22.2307V9.40373H0.979599V22.2307H1.4796ZM1.4796 9.40373C1.4796 4.93655 5.11291 1.34473 9.5836 1.34473V0.844727C4.84029 0.844727 0.979599 4.6569 0.979599 9.40373H1.4796ZM9.5836 1.34473H14.5116V0.844727H9.5836V1.34473ZM14.5116 1.34473C18.9649 1.34473 22.5716 4.93515 22.5716 9.40373H23.0716C23.0716 4.6583 19.2403 0.844727 14.5116 0.844727V1.34473ZM22.5716 9.40373V14.3327H23.0716V9.40373H22.5716ZM22.5716 14.3327C22.5716 18.803 18.9631 22.4357 14.5126 22.4357V22.9357C19.2421 22.9357 23.0716 19.0764 23.0716 14.3327H22.5716Z" fill="#7C6C8A"/>
<path fill-rule="evenodd" clip-rule="evenodd" d="M11.252 8.44662L13.838 11.0316L18.403 6.46762L17.447 5.51262L14.191 8.76862C14.098 8.86262 13.971 8.87962 13.838 8.87962C13.75 8.87962 13.623 8.86262 13.529 8.76862L12.208 7.44662L11.252 8.44662ZM13.902 12.0846C13.847 12.0846 13.798 12.0756 13.784 12.0566C13.657 12.0316 13.549 12.0216 13.466 11.9386L10.282 8.75562C10.189 8.66162 10.136 8.53462 10.136 8.44662C10.136 8.31362 10.189 8.18662 10.282 8.09262L11.899 6.47562C12.095 6.32562 12.366 6.32562 12.562 6.47562L13.838 7.79862L17.094 4.54262C17.289 4.38862 17.561 4.38862 17.756 4.54262L19.374 6.15862C19.468 6.25262 19.513 6.37962 19.513 6.46762C19.513 6.59962 19.468 6.72662 19.374 6.82062L14.211 11.9376C14.158 12.0356 14.03 12.0846 13.902 12.0846Z" fill="#7C6C8A"/>
<path d="M11.252 8.44662L11.0713 8.27387L10.9023 8.45059L11.0753 8.62344L11.252 8.44662ZM13.838 11.0316L13.6613 11.2084L13.838 11.3851L14.0148 11.2084L13.838 11.0316ZM18.403 6.46762L18.5798 6.64442L18.7567 6.46755L18.5797 6.29075L18.403 6.46762ZM17.447 5.51262L17.6237 5.33575L17.4469 5.15916L17.2702 5.33585L17.447 5.51262ZM14.191 8.76862L14.0142 8.59185L14.0133 8.5928L14.191 8.76862ZM13.529 8.76862L13.3522 8.94533L13.3522 8.9454L13.529 8.76862ZM12.208 7.44662L12.3848 7.26991L12.204 7.08898L12.0273 7.27387L12.208 7.44662ZM13.784 12.0566L13.9853 11.9083L13.9276 11.8301L13.8323 11.8113L13.784 12.0566ZM13.466 11.9386L13.6428 11.7618L13.6428 11.7618L13.466 11.9386ZM10.282 8.75562L10.1043 8.93146L10.1053 8.93243L10.282 8.75562ZM10.282 8.09262L10.1052 7.91584L10.1043 7.9168L10.282 8.09262ZM11.899 6.47562L11.7471 6.27709L11.7339 6.28715L11.7222 6.29885L11.899 6.47562ZM12.562 6.47562L12.7419 6.30207L12.7289 6.28853L12.7139 6.27709L12.562 6.47562ZM13.838 7.79862L13.6581 7.97218L13.8348 8.1554L14.0148 7.9754L13.838 7.79862ZM17.094 4.54262L16.9391 4.34643L16.9276 4.3555L16.9172 4.36585L17.094 4.54262ZM17.756 4.54262L17.9327 4.36574L17.9224 4.35545L17.9109 4.34643L17.756 4.54262ZM19.374 6.15862L19.5508 5.98185L19.5507 5.98174L19.374 6.15862ZM19.374 6.82062L19.55 6.99819L19.5508 6.9974L19.374 6.82062ZM14.211 11.9376L14.035 11.7601L14.0087 11.7861L13.9911 11.8187L14.211 11.9376ZM11.0753 8.62344L13.6613 11.2084L14.0147 10.8548L11.4287 8.26981L11.0753 8.62344ZM14.0148 11.2084L18.5798 6.64442L18.2262 6.29083L13.6612 10.8548L14.0148 11.2084ZM18.5797 6.29075L17.6237 5.33575L17.2703 5.68949L18.2263 6.64449L18.5797 6.29075ZM17.2702 5.33585L14.0142 8.59185L14.3678 8.9454L17.6238 5.6894L17.2702 5.33585ZM14.0133 8.5928C13.9959 8.61041 13.9606 8.62962 13.838 8.62962V9.12962C13.9814 9.12962 14.2001 9.11484 14.3687 8.94445L14.0133 8.5928ZM13.838 8.62962C13.8089 8.62962 13.7806 8.62667 13.7562 8.6195C13.7329 8.61267 13.7172 8.60329 13.7058 8.59185L13.3522 8.9454C13.5169 9.11004 13.7273 9.12962 13.838 9.12962V8.62962ZM13.7058 8.59191L12.3848 7.26991L12.0312 7.62333L13.3522 8.94533L13.7058 8.59191ZM12.0273 7.27387L11.0713 8.27387L11.4327 8.61938L12.3887 7.61938L12.0273 7.27387ZM13.902 11.8346C13.886 11.8346 13.8793 11.8331 13.8817 11.8337C13.8828 11.8339 13.8929 11.8361 13.9076 11.8431C13.9199 11.8489 13.9548 11.867 13.9853 11.9083L13.5827 12.2049C13.6202 12.2557 13.6665 12.2821 13.6936 12.2949C13.7232 12.309 13.7515 12.317 13.7735 12.3218C13.8177 12.3316 13.863 12.3346 13.902 12.3346V11.8346ZM13.8323 11.8113C13.8148 11.8079 13.798 11.8048 13.7828 11.802C13.7672 11.7991 13.7536 11.7966 13.7406 11.794C13.7143 11.7888 13.6955 11.7845 13.6804 11.7799C13.6532 11.7718 13.6464 11.7655 13.6428 11.7618L13.2892 12.1154C13.44 12.2661 13.6492 12.2849 13.7357 12.3019L13.8323 11.8113ZM13.6428 11.7618L10.4588 8.57882L10.1053 8.93243L13.2893 12.1154L13.6428 11.7618ZM10.4597 8.57979C10.4354 8.55517 10.4151 8.52478 10.4016 8.49507C10.387 8.46309 10.386 8.44519 10.386 8.44662H9.886C9.886 8.61357 9.97509 8.80087 10.1043 8.93145L10.4597 8.57979ZM10.386 8.44662C10.386 8.38027 10.4125 8.31623 10.4597 8.26845L10.1043 7.9168C9.96555 8.05702 9.886 8.24697 9.886 8.44662H10.386ZM10.4588 8.2694L12.0758 6.6524L11.7222 6.29885L10.1052 7.91585L10.4588 8.2694ZM12.0509 6.67416C12.1573 6.59278 12.3037 6.59278 12.4101 6.67416L12.7139 6.27709C12.4283 6.05847 12.0327 6.05847 11.7471 6.27709L12.0509 6.67416ZM12.3821 6.64918L13.6581 7.97218L14.0179 7.62507L12.7419 6.30207L12.3821 6.64918ZM14.0148 7.9754L17.2708 4.7194L16.9172 4.36585L13.6612 7.62185L14.0148 7.9754ZM17.2489 4.73882C17.3531 4.65656 17.4969 4.65656 17.6011 4.73882L17.9109 4.34643C17.6251 4.12069 17.2249 4.12069 16.9391 4.34643L17.2489 4.73882ZM17.5793 4.71951L19.1973 6.33551L19.5507 5.98174L17.9327 4.36574L17.5793 4.71951ZM19.1972 6.3354C19.219 6.35715 19.2366 6.38448 19.2484 6.41258C19.2609 6.44211 19.263 6.46277 19.263 6.46762H19.763C19.763 6.31094 19.69 6.12102 19.5508 5.98185L19.1972 6.3354ZM19.263 6.46762C19.263 6.54324 19.2378 6.60331 19.1972 6.64385L19.5508 6.9974C19.6982 6.84994 19.763 6.65601 19.763 6.46762H19.263ZM19.198 6.64306L14.035 11.7601L14.387 12.1152L19.55 6.99819L19.198 6.64306ZM13.9911 11.8187C13.997 11.8077 14.0004 11.8116 13.9823 11.8198C13.9643 11.8279 13.9359 11.8346 13.902 11.8346V12.3346C14.0726 12.3346 14.315 12.2709 14.4309 12.0566L13.9911 11.8187Z" fill="#7C6C8A"/>
</svg>
