<svg width="16" height="26" viewBox="0 0 16 26" fill="none" xmlns="http://www.w3.org/2000/svg">
<path d="M12.6925 2H3.33048C2.77389 2.00081 2.24035 2.2121 1.84678 2.58758C1.45322 2.96306 1.23174 3.47209 1.2309 4.00309L1.2309 22.0249C1.23678 22.5521 1.46069 23.0559 1.85389 23.4264C2.24709 23.797 2.77778 24.0044 3.33048 24.0036H12.6925C13.2437 24.0036 13.7724 23.7949 14.1624 23.4233C14.5525 23.0518 14.772 22.5477 14.7729 22.0218V4.00309C14.7746 3.4745 14.5566 2.96683 14.1666 2.59135C13.7766 2.21588 13.2465 2.00322 12.6925 2ZM13.3306 20.1557V22.0188C13.3332 22.1838 13.2678 22.3433 13.1485 22.4629C13.0291 22.5824 12.8654 22.6525 12.6925 22.6581H3.33048C3.2421 22.6589 3.15443 22.6429 3.07257 22.6111C2.99071 22.5793 2.9163 22.5323 2.85365 22.4728C2.791 22.4133 2.74138 22.3425 2.70765 22.2646C2.67393 22.1867 2.65678 22.1031 2.65721 22.0188V20.1557H13.3306ZM13.3306 7.20561V18.8163H2.6604V7.20866L13.3306 7.20561ZM13.3561 4.00309V5.84485H2.6604V4.00309C2.65954 3.91866 2.67639 3.83491 2.70996 3.75678C2.74353 3.67864 2.79314 3.60771 2.85588 3.54814C2.91861 3.48857 2.9932 3.44158 3.07525 3.40992C3.15731 3.37827 3.24517 3.36259 3.33367 3.36381H12.6925C12.7801 3.36381 12.867 3.38038 12.9479 3.41258C13.0289 3.44479 13.1023 3.49197 13.164 3.55142C13.2257 3.61086 13.2745 3.68138 13.3075 3.75891C13.3404 3.83644 13.357 3.91943 13.3561 4.00309Z" fill="#7C6C8A"/>
<path d="M11.6235 3.64081C11.4903 3.64121 11.3584 3.66664 11.2354 3.71566C11.1125 3.76468 11.0009 3.83632 10.9069 3.9265C10.813 4.01667 10.7386 4.12362 10.688 4.24122C10.6374 4.35882 10.6116 4.48479 10.612 4.61191C10.6154 4.86518 10.7236 5.10689 10.9131 5.28427C11.1027 5.46165 11.358 5.56029 11.6235 5.55866C11.7546 5.56029 11.8847 5.53695 12.0062 5.49002C12.1277 5.44309 12.2382 5.37352 12.3312 5.28536C12.4242 5.1972 12.4979 5.09223 12.5478 4.9766C12.5978 4.86097 12.6231 4.73699 12.6222 4.61191C12.6235 4.48558 12.5987 4.36025 12.5492 4.24308C12.4997 4.12591 12.4264 4.01919 12.3337 3.92901C12.241 3.83883 12.1305 3.76697 12.0086 3.71752C11.8868 3.66807 11.7559 3.642 11.6235 3.64081Z" fill="#7C6C8A"/>
</svg>
