<svg width="74" height="32" viewBox="0 0 74 32" fill="none" xmlns="http://www.w3.org/2000/svg">
<path fill-rule="evenodd" clip-rule="evenodd" d="M73.4673 22.2301C73.6872 22.9313 73.3934 23.3791 72.6827 23.4642L68.6659 23.9237C68.0597 23.9901 67.5824 23.7368 67.4514 23.1629L63.932 9.11184C63.8279 8.77809 63.5574 8.8105 63.5287 9.15955L62.86 23.6872C62.8265 24.2795 62.4521 24.6371 61.8438 24.7035L58.941 25.0355C58.3327 25.1088 57.8943 24.8449 57.7295 24.2746L53.8742 10.2677C53.7682 9.93416 53.498 9.96632 53.466 10.3154L53.1367 24.8057C53.1333 25.3897 52.7269 25.7504 52.1204 25.8202L48.1036 26.2815C47.3914 26.3632 47.0101 25.9887 47.0656 25.2567L48.7672 2.84731C48.8041 2.2532 49.1772 1.89922 49.7837 1.82739L54.5462 1.28436C55.1527 1.21304 55.5591 1.48015 55.7592 2.04366L58.5561 10.2524C58.6603 10.5827 58.9325 10.5521 58.9594 10.2031L59.8766 1.57558C59.9488 0.978096 60.283 0.627229 60.8946 0.557729L65.6523 0.0110715C66.2603 -0.0586871 66.702 0.201935 66.8651 0.772192L73.4673 22.2301ZM0.0690205 9.01677C-0.145946 8.31192 0.148097 7.86251 0.855183 7.78056L4.87198 7.32104C5.48335 7.25128 5.95551 7.50672 6.08807 8.08034L9.60431 22.1296C9.71179 22.4651 9.97717 22.4345 10.011 22.0821L10.6794 7.55417C10.7162 6.96369 11.0909 6.60608 11.6941 6.53969L14.6005 6.20775C15.2085 6.13644 15.6469 6.39654 15.8132 6.96887L19.667 20.9771C19.7745 21.3142 20.0417 21.2836 20.0752 20.9312L20.4046 6.44089C20.4094 5.8504 20.8094 5.49461 21.4208 5.42459L25.4394 4.9617C26.1483 4.88182 26.5329 5.25629 26.4722 5.98811L24.7722 28.3977C24.7372 28.9918 24.3625 29.3461 23.7575 29.4091L18.9968 29.9589C18.387 30.0302 17.9821 29.7649 17.782 29.1959L14.9851 20.9927C14.8792 20.6623 14.6087 20.6913 14.5818 21.0438L13.6631 29.6694C13.5924 30.2721 13.2564 30.6194 12.6466 30.6907L7.88739 31.234C7.27755 31.3053 6.83918 31.0434 6.67283 30.4747L0.0690205 9.01677ZM38.024 2.88731C29.899 3.80076 28.9251 10.0667 28.746 12.3802L28.0449 21.1512C27.8625 23.4644 27.8503 29.6214 35.9771 28.7012C44.1018 27.7773 45.0742 21.5166 45.2566 19.1997L45.9544 10.434C46.1386 8.11677 46.149 1.96683 38.024 2.88731ZM36.4511 22.6639C33.9162 22.9523 33.8736 21.3254 34.0903 18.6207L34.4894 13.5738C34.7043 10.8709 35.0063 9.20448 37.5464 8.9176C40.0847 8.63098 40.1239 10.2581 39.9106 12.9592L39.5062 18.011C39.2981 20.7087 38.993 22.3772 36.4511 22.6639Z" fill="#FEFEFE"/>
</svg>
