<svg width="100" height="132" viewBox="0 0 100 132" fill="none" xmlns="http://www.w3.org/2000/svg">
<path d="M69 28.5C69 25.4139 68.4698 22.3581 67.4395 19.5069C66.4093 16.6558 64.8993 14.0652 62.9957 11.883C61.0921 9.70081 58.8322 7.96982 56.345 6.78883C53.8578 5.60785 51.1921 5 48.5 5C45.8079 5 43.1422 5.60785 40.655 6.78883C38.1678 7.96982 35.9079 9.70081 34.0043 11.883C32.1007 14.0652 30.5907 16.6558 29.5605 19.5069C28.5302 22.3581 28 25.4139 28 28.5H31.7133C31.7133 25.9729 32.1475 23.4706 32.9911 21.1359C33.8347 18.8012 35.0712 16.6798 36.63 14.8929C38.1888 13.106 40.0394 11.6886 42.076 10.7215C44.1127 9.75445 46.2955 9.25671 48.5 9.25671C50.7045 9.25671 52.8873 9.75445 54.924 10.7215C56.9606 11.6886 58.8112 13.106 60.37 14.8929C61.9288 16.6798 63.1653 18.8012 64.0089 21.1359C64.8525 23.4706 65.2867 25.9729 65.2867 28.5H69Z" fill="#E92070"/>
<path d="M39.1672 85H57.8328C58.4786 85 59 85.6716 59 86.5C59 87.7 57.9755 87.9989 57.4632 87.9984H52.0004L49.6672 88H39.1672C38.5214 88 38 87.33 38 86.5C38 85.6716 38.5214 85 39.1672 85Z" fill="#381451"/>
<path d="M37.916 84.9632C37.3434 85.5618 37.3645 86.5113 37.9632 87.084C38.5618 87.6566 39.5113 87.6355 40.084 87.0368L37.916 84.9632ZM56.9111 87.0316C57.4808 87.633 58.4302 87.6587 59.0316 87.0889C59.633 86.5192 59.6587 85.5698 59.0889 84.9684L56.9111 87.0316ZM40.084 87.0368C41.9232 85.114 44.1471 83.0634 46.8274 82.4638C49.3228 81.9056 52.6489 82.5326 56.9111 87.0316L59.0889 84.9684C54.3511 79.9674 50.0105 78.6777 46.1726 79.5362C42.5195 80.3533 39.7434 83.0527 37.916 84.9632L40.084 87.0368Z" fill="#381451"/>
<path d="M35.6828 70.8813C35.9703 71.1672 36.3437 71.3094 36.7187 71.3094C37.0937 71.3094 37.4672 71.1656 37.7547 70.8813C38.3266 70.3094 38.3266 69.3813 37.7547 68.8109L35.8609 66.9156L37.7547 65.0219C38.3266 64.45 38.3266 63.5219 37.7547 62.9516C37.1828 62.3781 36.2547 62.3781 35.6828 62.9516L33.7891 64.8453L31.8953 62.9516C31.3234 62.3781 30.3953 62.3781 29.8234 62.9516C29.2516 63.5219 29.2516 64.45 29.8234 65.0219L31.7172 66.9156L29.8234 68.8109C29.2516 69.3813 29.2516 70.3094 29.8234 70.8813C30.1109 71.1672 30.4844 71.3094 30.8594 71.3094C31.2344 71.3094 31.6078 71.1656 31.8953 70.8813L33.7891 68.9875L35.6828 70.8813Z" fill="#381451"/>
<path d="M67.0516 62.9516C66.4797 62.3781 65.5516 62.3781 64.9797 62.9516L63.0859 64.8453L61.1922 62.9516C60.6203 62.3781 59.6922 62.3781 59.1203 62.9516C58.5484 63.5219 58.5484 64.45 59.1203 65.0219L61.0141 66.9156L59.1203 68.8109C58.5484 69.3813 58.5484 70.3094 59.1203 70.8813C59.4078 71.1672 59.7812 71.3094 60.1562 71.3094C60.5312 71.3094 60.9047 71.1656 61.1922 70.8813L63.0859 68.9875L64.9797 70.8813C65.2672 71.1672 65.6406 71.3094 66.0156 71.3094C66.3906 71.3094 66.7641 71.1656 67.0516 70.8813C67.6234 70.3094 67.6234 69.3813 67.0516 68.8109L65.1578 66.9156L67.0516 65.0219C67.6234 64.45 67.6234 63.5219 67.0516 62.9516Z" fill="#381451"/>
<path d="M80.661 27.7168C80.6485 27.7168 80.6438 27.723 80.6313 27.723L16.2079 27.723C13.7844 27.723 11.8141 29.6949 11.8141 32.1168L11.8141 122.939C11.8141 123.128 11.8532 123.318 11.9251 123.498C12.0751 123.856 12.3594 124.142 12.7172 124.289C13.0782 124.437 13.4782 124.437 13.8407 124.289C14.0172 124.214 14.1813 124.109 14.3188 123.973L19.1391 119.15L23.9625 123.973C24.5344 124.546 25.4626 124.546 26.0344 123.973L30.8579 119.15L35.6813 123.973C36.2532 124.546 37.1813 124.546 37.7532 123.973L42.5766 119.15L47.4001 123.973C47.9719 124.546 48.9001 124.546 49.4719 123.973L54.2954 119.15L59.1188 123.973C59.6907 124.546 60.6188 124.546 61.1907 123.973L66.0141 119.15L70.8376 123.973C71.4094 124.546 72.3376 124.546 72.9094 123.973L77.7329 119.15L82.5532 123.973C82.6907 124.109 82.8532 124.214 83.0313 124.289C83.3922 124.437 83.7922 124.437 84.1547 124.289C84.5126 124.142 84.7969 123.857 84.9469 123.498C85.0188 123.318 85.0579 123.128 85.0579 122.939L85.0579 32.1183C85.0579 32.1183 85.0579 32.1183 85.0579 32.1152C85.0579 32.1121 85.0579 32.1121 85.0579 32.1121C85.0563 29.6886 83.0844 27.7168 80.661 27.7168ZM16.2079 30.6527L80.661 30.6527C80.6672 30.6527 80.6704 30.6496 80.6751 30.6496C81.4766 30.659 82.1266 31.3105 82.1266 32.1121C82.1266 32.1121 82.1266 32.1121 82.1266 32.1152C82.1266 32.1183 82.1266 32.1183 82.1266 32.1183L82.1266 119.401L78.7688 116.043C78.4813 115.757 78.1079 115.615 77.7329 115.615C77.3579 115.615 76.9844 115.759 76.6969 116.043L71.8719 120.867L67.0485 116.043C66.761 115.757 66.3876 115.615 66.0126 115.615C65.6376 115.615 65.2641 115.759 64.9766 116.043L60.1532 120.867L55.3297 116.043C55.0422 115.757 54.6688 115.615 54.2938 115.615C53.9188 115.615 53.5454 115.759 53.2579 116.043L48.4344 120.867L43.611 116.043C43.3235 115.757 42.9501 115.615 42.5751 115.615C42.2001 115.615 41.8266 115.759 41.5391 116.043L36.7157 120.867L31.8922 116.043C31.6047 115.757 31.2313 115.615 30.8563 115.615C30.4813 115.615 30.1079 115.759 29.8204 116.043L24.9969 120.867L20.1735 116.043C19.886 115.757 19.5126 115.615 19.1376 115.615C18.7626 115.615 18.3891 115.759 18.1016 116.043L14.7438 119.401L14.7438 32.1183C14.7438 31.3105 15.4001 30.6527 16.2079 30.6527Z" fill="#381451"/>
</svg>
