<svg width="31" height="31" viewBox="0 0 31 31" fill="none" xmlns="http://www.w3.org/2000/svg">
<path fill-rule="evenodd" clip-rule="evenodd" d="M15.5 31C24.0604 31 31 24.0604 31 15.5C31 6.93959 24.0604 0 15.5 0C6.93959 0 0 6.93959 0 15.5C0 24.0604 6.93959 31 15.5 31Z" fill="url(#paint0_linear)"/>
<mask id="mask0" mask-type="alpha" maskUnits="userSpaceOnUse" x="0" y="0" width="31" height="31">
<path fill-rule="evenodd" clip-rule="evenodd" d="M15.5 31C24.0604 31 31 24.0604 31 15.5C31 6.93959 24.0604 0 15.5 0C6.93959 0 0 6.93959 0 15.5C0 24.0604 6.93959 31 15.5 31Z" fill="white"/>
</mask>
<g mask="url(#mask0)">
<path d="M25.2734 25.8789C25.1389 25.5685 24.87 25.3025 24.5562 25.1251L19.7155 22.6201C19.6034 22.5757 19.4689 22.5757 19.3793 22.6422C18.7294 23.1299 16.802 25.3247 16.802 25.3247C16.802 25.3247 15.5694 25.3247 14.6954 25.3247C13.799 25.3247 12.3199 25.3247 12.3199 25.3247C12.3199 25.3247 10.8407 23.4403 10.0115 22.6422C9.92189 22.5757 9.78742 22.5535 9.67537 22.6201L4.8122 25.1251C4.49845 25.2803 4.25193 25.5463 4.09505 25.8789L0.957521 32.8842C0.733412 33.372 0.778234 33.9262 1.06958 34.3696C1.36092 34.8129 1.85396 35.079 2.39182 35.079H26.9766C27.5145 35.079 28.0075 34.8129 28.2988 34.3696C28.5902 33.904 28.635 33.372 28.4109 32.8842L25.2734 25.8789Z" fill="#FEFEFE"/>
<path fill-rule="evenodd" clip-rule="evenodd" d="M20.6933 12.1897C20.856 12.1676 21.1583 12.1676 21.3675 12.3004C21.5303 12.3889 21.6698 12.5438 21.6 12.9201C21.6 13.67 21.1208 15.4774 21.069 15.6728L21.069 15.6728L21.0653 15.6868L21.042 15.7754L20.949 15.8418C20.9207 15.8418 20.8808 15.8564 20.8294 15.8752C20.7544 15.9027 20.6547 15.9393 20.5305 15.9524L20.5651 18.6732C20.5877 20.4488 19.919 22.1637 18.7004 23.4555C17.8239 24.3846 16.5912 24.8936 15.3144 24.8535L15.2064 24.8501L15.0982 24.8535C13.8215 24.8936 12.5889 24.3846 11.7124 23.4555C10.4937 22.1638 9.8251 20.4488 9.84776 18.6731L9.88219 15.9746C9.74269 15.9303 9.57994 15.8639 9.55669 15.8418L9.46369 15.7754L9.44044 15.6868C9.41719 15.6425 8.9057 13.7169 8.9057 12.9201C8.9057 12.5881 9.0917 12.3889 9.20795 12.3004C9.39394 12.1897 9.62644 12.1676 9.81244 12.1897L9.55669 9.93207C8.44071 4.952 10.5332 4.19946 14.6716 3.40265C17.5546 2.82718 19.6238 4.15519 20.298 5.15121C20.9723 6.14722 19.6935 7.69658 19.6935 7.69658C19.6935 7.69658 19.0193 6.94403 17.8568 7.56377C17.1444 7.93001 16.3447 7.84736 15.2435 7.73356H15.2435H15.2435C14.5479 7.66166 13.732 7.57734 12.7419 7.58591C10.2309 7.63017 10.7889 10.5961 11.6492 11.1052C11.802 11.1987 11.6165 11.0921 11.302 10.9115L11.3019 10.9114C10.9468 10.7074 10.4272 10.409 10.0449 10.1977L10.2309 11.9905L11.1842 12.079C11.7887 11.9462 12.3466 11.8577 12.8581 11.8577C13.7184 11.8577 14.4159 12.079 14.7414 12.2782H15.8341L15.8523 12.2696C16.138 12.1333 16.7161 11.8577 17.7173 11.8577C18.2056 11.8577 18.7403 11.9462 19.3448 12.079L20.205 12.0126L20.3213 10.5961C20.1818 9.20166 19.9725 7.98431 19.9725 7.98431C19.9725 7.98431 20.3678 7.14323 20.7863 7.0547C21.228 6.96617 21.321 7.47524 21.3443 8.40485C21.3908 9.09099 21.0885 10.0649 20.8095 10.5961L20.6933 12.1897ZM19.926 12.3889C19.9725 12.4996 19.9958 12.6102 19.9958 12.7873V12.3889H19.926ZM11.5178 18.0006L11.5178 18.0005C11.3079 17.101 10.5151 13.7024 10.5797 12.411H10.7657C10.6727 12.8316 10.5332 14.0932 11.5329 14.7572C11.8817 14.9785 12.3002 15.1335 12.7419 15.1335C13.3464 15.1335 13.9044 14.9121 14.2996 14.5359C14.5786 14.2481 14.9041 13.1857 14.9739 12.6988H15.6946C15.7876 13.1857 16.1131 14.2481 16.3688 14.5359C16.7641 14.9121 17.3221 15.1335 17.9266 15.1335C18.3683 15.1335 18.7868 15.0228 19.1355 14.7572C19.554 14.4695 19.7633 14.1375 19.8795 13.7612C19.6005 15.5983 18.996 18.1879 18.996 18.1879C18.3218 17.369 16.7873 16.8378 16.2061 16.6607L16.6013 16.3287L16.2991 16.0188L15.8341 16.4394H14.9506L14.3461 15.9967L14.0671 16.373L14.4624 16.6607C13.9974 16.7935 12.3234 17.3468 11.5794 18.21V18.1658H11.5562C11.5476 18.1283 11.5346 18.0727 11.518 18.0013L11.5178 18.0006ZM15.5547 19.7836C15.7038 19.9317 15.8423 20.0693 15.9968 20.0693C16.3688 20.0914 17.8801 20.0914 17.0198 18.8077L16.5781 18.5863L16.3688 18.9626H14.2066L14.0206 18.5421L13.4626 18.8298C12.6489 20.0914 14.1369 20.0914 14.5321 20.0693C14.7156 20.0693 14.8764 19.897 15.0593 19.7011L15.0669 19.693V19.1839H15.4621V19.693C15.4935 19.7229 15.5242 19.7534 15.5545 19.7835L15.5545 19.7835L15.5545 19.7835L15.5546 19.7836L15.5547 19.7836ZM15.5086 16.882L15.2761 17.0148L15.0436 16.882H15.5086ZM15.6016 18.0551H14.9739L14.4391 18.2986L14.5321 18.4978H16.1363L16.2293 18.365L15.6016 18.0551ZM9.88186 15.2246L9.88185 15.2245C9.73119 14.6206 9.44044 13.4551 9.44044 12.9201C9.44044 12.7873 9.46369 12.6988 9.53344 12.6324C9.62644 12.566 9.81244 12.566 9.92869 12.6102L9.99844 13.0529L9.95194 15.5097C9.93645 15.4434 9.91195 15.3452 9.88186 15.2246ZM20.6003 15.5319C20.6235 15.5319 20.6933 15.5319 20.7165 15.5097C20.8328 15.1113 21.228 13.5841 21.2048 12.9201C21.2048 12.7652 21.1815 12.6988 21.1118 12.6324C20.9955 12.5438 20.763 12.5881 20.67 12.6102L20.577 13.6948L20.6003 15.5319Z" fill="#FEFEFE"/>
</g>
<defs>
<linearGradient id="paint0_linear" x1="0" y1="0" x2="0" y2="31" gradientUnits="userSpaceOnUse">
<stop stop-color="#58187E"/>
<stop offset="1" stop-color="#551261"/>
</linearGradient>
</defs>
</svg>
